<?xml version="1.0" encoding="UTF-8"?>
<svg id="Layer_2" data-name="Layer 2" xmlns="http://www.w3.org/2000/svg" viewBox="0 0 689.77 236.43">
  <defs>
    <style>
      .cls-1 {
        fill: #3565b0;
      }

      .cls-1, .cls-2 {
        stroke-width: 0px;
      }

      .cls-2 {
        fill: #f9f9fa;
      }
    </style>
  </defs>
  <g id="Layer_1-2" data-name="Layer 1">
    <g>
      <g>
        <path class="cls-1" d="M235.51,1.77v57.89c-2.78,0-5.39,0-7.99,0-24.93.04-49.86-.02-74.79.15-50.86.37-92.26,41.44-92.85,92.31-.3,25.18-.08,50.36-.1,75.55v8.27H1.74c0-2.4.05-4.74,0-7.09-.66-30.59-2.36-61.21-1.5-91.76.34-12.35,5.34-24.9,9.83-36.75C32.71,40.62,86.79,1.97,150.75.23c26.38-.71,52.82.46,79.22.81,1.7.03,3.37.44,5.54.73h0Z"/>
        <path class="cls-1" d="M146.17,148.62c-2.63,7.19,4.14,9.91,8.03,13.47,24.37,22.32,48.95,44.4,73.45,66.57,2.17,1.96,4.28,4.01,7.61,7.15-3.6.28-5.85.61-8.11.61-24.17,0-48.34.09-72.5-.27-3.3-.05-7.21-1.65-9.71-3.83-12.28-10.67-24.31-21.64-36.17-32.78-20.72-19.43-26.9-47.21-16.56-73.09,10.13-25.37,33.77-41.3,61.78-41.4,26.87-.1,53.99-.05,81.51-.05v58.41c-24.89,0-49.53-.09-73.91.13-5.53.05-12.64-2.55-15.43,5.08h0Z"/>
        <rect class="cls-1" x="177.12" y="41.82" width="58.4" height="76.15"/>
      </g>
      <g>
        <path class="cls-2" d="M287.99,101.21V19.12h13.76v82.09h-13.76ZM300.94,70.68v-12.83h15.84c3.97,0,7.05-1.12,9.25-3.35,2.2-2.23,3.29-5.36,3.29-9.37s-1.1-7.45-3.29-9.74c-2.2-2.29-5.28-3.44-9.25-3.44h-15.61l-1.39-12.83h17c8.71,0,15.44,2.16,20.18,6.48,4.74,4.32,7.11,10.44,7.11,18.38,0,8.44-2.37,15-7.11,19.68s-11.47,7.02-20.18,7.02h-15.84ZM330.6,101.21l-16.65-38.62h14.74l18.38,38.62h-16.48Z"/>
        <path class="cls-2" d="M390.14,102.36c-10.52,0-18.65-2.75-24.4-8.24-5.74-5.49-8.61-13.38-8.61-23.67s2.44-17.81,7.31-23.35c4.88-5.55,11.74-8.32,20.61-8.32s15.17,2.54,19.86,7.63c4.68,5.09,7.02,12.47,7.02,22.14,0,2.81-.12,5.45-.35,7.92h-44.17v-10.29h30.87c0-4.66-1.16-8.25-3.47-10.75-2.31-2.5-5.53-3.76-9.65-3.76-4.51,0-8.02,1.58-10.52,4.74-2.51,3.16-3.76,7.65-3.76,13.47,0,6.28,1.79,11.07,5.38,14.37,3.58,3.3,8.67,4.94,15.26,4.94,2.7,0,5.35-.14,7.95-.43,2.6-.29,5.25-.68,7.95-1.19l1.5,13.18c-3.82.69-7.29,1.14-10.43,1.33-3.14.19-5.93.29-8.35.29Z"/>
        <path class="cls-2" d="M422.57,64.85v-12.02h57.81v12.02h-57.81ZM441.48,101.21v-56.08c0-21.2,10-31.8,30-31.8,4.59,0,9.02.39,13.3,1.16l-1.39,12.95c-2.54-.31-4.78-.52-6.71-.64-1.93-.12-3.78-.17-5.55-.17-10.29,0-15.44,5.97-15.44,17.92v56.65h-14.22Z"/>
        <path class="cls-2" d="M513.97,102.36c-6.47,0-11.5-1.58-15.06-4.74-3.56-3.16-5.35-7.63-5.35-13.41,0-6.71,2.39-11.85,7.17-15.44,4.78-3.58,11.54-5.38,20.29-5.38,3.47,0,6.51.19,9.13.58,2.62.39,5.13.98,7.52,1.79l-2.54,10.64c-2.51-.58-4.84-.92-6.99-1.01-2.16-.1-4.41-.14-6.76-.14-9.1,0-13.64,2.68-13.64,8.04,0,2.35.8,4.14,2.4,5.38,1.6,1.23,3.92,1.85,6.97,1.85,3.55,0,6.51-.65,8.9-1.94,2.39-1.29,4.18-2.93,5.38-4.91,1.19-1.98,1.79-4.04,1.79-6.16v-4.97l2.77,15.72h-4.91l2.02-1.85c-.08,3.55-.9,6.5-2.46,8.87-1.56,2.37-3.75,4.14-6.56,5.32-2.81,1.18-6.17,1.76-10.06,1.76ZM535.07,101.79l-1.1-18.15-.81-6.82v-13.53c0-3.58-1.41-6.21-4.22-7.89-2.81-1.68-7.01-2.59-12.6-2.75l-15.26-.4,1.16-12.89,12.95.17c10.71.15,18.67,2.34,23.88,6.56s7.8,10.38,7.8,18.47v23.82l9.25,1.27v11.56l-21.04.58Z"/>
        <path class="cls-2" d="M599.3,102.36c-10.87,0-19.26-2.75-25.18-8.24-5.92-5.49-8.87-13.38-8.87-23.67s2.74-17.81,8.21-23.35c5.47-5.55,13.3-8.32,23.47-8.32,6.2,0,11.51,1.19,15.93,3.56,4.41,2.37,7.54,5.71,9.39,10.03l-10.58,8.27c-1.7-2.74-3.87-4.85-6.53-6.33-2.66-1.48-5.55-2.23-8.67-2.23-5.16,0-9.17,1.54-12.02,4.62-2.85,3.08-4.28,7.48-4.28,13.18,0,6.24,1.77,11,5.32,14.28,3.54,3.28,8.61,4.91,15.2,4.91,2.81,0,5.62-.13,8.41-.4,2.79-.27,5.52-.64,8.18-1.1l1.5,13.06c-3.12.69-6.36,1.16-9.71,1.39s-6.61.35-9.77.35Z"/>
        <path class="cls-2" d="M630.8,52.59v-12.66h56.65v12.66h-56.65ZM645.78,71.72V21.43h14.22v50.29h-14.22ZM674.28,102.36c-10.06,0-17.32-2.04-21.79-6.13-4.47-4.08-6.71-10.62-6.71-19.6v-8.96h14.22v7.8c0,4.74,1.19,8.19,3.58,10.35,2.39,2.16,6.34,3.24,11.85,3.24,1.81,0,3.76-.11,5.84-.32,2.08-.21,4.45-.49,7.11-.84l1.39,13.06c-2.58.46-5.12.81-7.6,1.04s-5.12.35-7.89.35Z"/>
        <path class="cls-2" d="M312.33,223.1c-4.66,0-9.12-.39-13.38-1.16-4.26-.77-8.12-1.89-11.59-3.35l1.85-14.05c4.24,1.81,8.4,3.19,12.49,4.13,4.08.95,7.94,1.42,11.56,1.42,4.62,0,8.12-.82,10.49-2.46,2.37-1.64,3.56-4.04,3.56-7.2,0-4.12-2.35-7.26-7.05-9.42l-12.78-6.07c-5.74-2.7-10.17-6.03-13.27-10-3.1-3.97-4.65-8.54-4.65-13.7,0-7.17,2.28-12.72,6.85-16.65,4.57-3.93,11.03-5.9,19.4-5.9,5.24,0,10.07.86,14.48,2.57,4.41,1.71,8.45,4.31,12.11,7.78l-9.54,10.52c-2.97-2.62-5.85-4.6-8.64-5.92-2.79-1.33-5.58-2-8.35-2-3.62,0-6.44.82-8.44,2.46-2,1.64-3.01,4.02-3.01,7.14,0,2.16.68,4.06,2.05,5.69,1.37,1.64,3.34,3.11,5.93,4.42l11.5,5.72c5.9,2.93,10.41,6.31,13.56,10.15,3.14,3.84,4.71,8.26,4.71,13.27,0,7.36-2.53,12.97-7.6,16.82-5.07,3.85-12.48,5.78-22.23,5.78Z"/>
        <path class="cls-2" d="M353.32,173.32v-12.66h56.65v12.66h-56.65ZM368.29,192.46v-50.29h14.22v50.29h-14.22ZM396.79,223.1c-10.06,0-17.32-2.04-21.79-6.13-4.47-4.08-6.71-10.62-6.71-19.6v-8.96h14.22v7.8c0,4.74,1.19,8.19,3.58,10.35,2.39,2.16,6.34,3.24,11.85,3.24,1.81,0,3.76-.11,5.84-.32,2.08-.21,4.45-.49,7.11-.84l1.39,13.06c-2.58.46-5.12.81-7.6,1.04s-5.12.35-7.89.35Z"/>
        <path class="cls-2" d="M446.16,223.1c-6.05,0-10.74-1.92-14.08-5.75-3.33-3.83-5-9.24-5-16.22v-40.47h14.28v38.15c0,3.51.89,6.21,2.66,8.12,1.77,1.91,4.22,2.86,7.34,2.86,4.01,0,7.02-1.42,9.05-4.25,2.02-2.83,3.03-7.58,3.03-14.25l3.12,18.85h-4.45c-.96,4.16-2.84,7.36-5.64,9.6-2.79,2.23-6.23,3.35-10.32,3.35ZM463.45,204.6v-43.94h14.28v40.47l-14.28,3.47ZM464.49,222.52l-1.04-14.68v-10.75h14.28v12.02l8.44,1.27v11.56l-21.68.58Z"/>
        <path class="cls-2" d="M517.79,223.1c-7.79,0-13.77-2.7-17.95-8.09-4.18-5.39-6.27-13.2-6.27-23.41s2.09-18.31,6.27-23.82c4.18-5.51,10.18-8.27,18.01-8.27,4.51,0,8.04,1.04,10.58,3.12,2.54,2.08,4.12,5.13,4.74,9.13h4.97l-3.58,18.73c0-6.09-1.1-10.61-3.29-13.56s-5.45-4.42-9.77-4.42-7.54,1.64-9.8,4.91c-2.25,3.28-3.38,8-3.38,14.16s1.12,10.69,3.35,13.82c2.23,3.12,5.51,4.68,9.83,4.68,4.62,0,7.96-1.46,10-4.39,2.04-2.93,3.06-7.44,3.06-13.53l4.16,18.67h-5.38c-.54,4.01-2.16,7.05-4.86,9.13-2.7,2.08-6.26,3.12-10.69,3.12ZM536.4,222.52l-1.85-12.08v-75.21h14.28v86.71l-12.43.58Z"/>
        <path class="cls-2" d="M566.64,221.94v-12.72h24.11v12.72h-24.11ZM570.1,173.38v-12.72h33.7v12.72h-33.7ZM596.12,151.82c-2.74,0-4.99-.89-6.76-2.66-1.77-1.77-2.66-4.03-2.66-6.76s.89-4.99,2.66-6.76c1.77-1.77,4.03-2.66,6.76-2.66s4.99.89,6.76,2.66c1.77,1.77,2.66,4.03,2.66,6.76s-.89,4.99-2.66,6.76c-1.77,1.77-4.03,2.66-6.76,2.66ZM589.59,221.94v-57.81h14.22v57.81h-14.22ZM602.65,221.94v-12.72h19.6v12.72h-19.6Z"/>
        <path class="cls-2" d="M662.02,223.1c-8.67,0-15.41-2.78-20.2-8.32-4.8-5.55-7.2-13.37-7.2-23.47s2.4-17.97,7.2-23.5c4.8-5.53,11.53-8.3,20.2-8.3s15.45,2.77,20.23,8.3c4.78,5.53,7.17,13.36,7.17,23.5s-2.39,17.92-7.17,23.47c-4.78,5.55-11.52,8.32-20.23,8.32ZM662.02,209.8c3.97,0,7.02-1.61,9.16-4.83,2.14-3.22,3.21-7.78,3.21-13.67s-1.07-10.5-3.21-13.7c-2.14-3.2-5.19-4.8-9.16-4.8s-6.98,1.6-9.13,4.8c-2.16,3.2-3.24,7.77-3.24,13.7s1.08,10.45,3.24,13.67c2.16,3.22,5.2,4.83,9.13,4.83Z"/>
      </g>
    </g>
  </g>
</svg>