<svg width="510" height="125" viewBox="0 0 510 125" fill="none" xmlns="http://www.w3.org/2000/svg">
<g clip-path="url(#clip0_70_219)">
<mask id="path-1-inside-1_70_219" fill="white">
<path d="M0 5C0 2.23858 2.23858 0 5 0H505C507.761 0 510 2.23858 510 5V125H0V5Z"/>
</mask>
<path d="M0 5C0 2.23858 2.23858 0 5 0H505C507.761 0 510 2.23858 510 5V125H0V5Z" fill="#0E0E0E"/>
<g clip-path="url(#clip1_70_219)">
<path d="M0 5C0 2.23858 2.23858 0 5 0H242.5C245.261 0 247.5 2.23858 247.5 5V125H0V5Z" fill="#1C1C1C"/>
<path d="M12 14C12 12.8954 12.8954 12 14 12H35C36.1046 12 37 12.8954 37 14V110H12V14Z" fill="#2A2A2A"/>
<rect x="43" y="4" width="170" height="20" rx="2" fill="#2A2A2A"/>
<rect opacity="0.5" x="63" y="18" width="35" height="3" rx="1.5" fill="#FAFBFC"/>
<rect opacity="0.5" x="114" y="14" width="12" height="3" rx="1.5" fill="#FAFBFC"/>
<rect opacity="0.5" x="128" y="14" width="12" height="3" rx="1.5" fill="#FAFBFC"/>
<rect opacity="0.5" x="146" y="14" width="12" height="3" rx="1.5" fill="#FAFBFC"/>
<rect opacity="0.5" x="191" y="13" width="12" height="3" rx="1.5" fill="#3566B0"/>
<rect x="61" y="33" width="67" height="20" rx="2" fill="#2A2A2A"/>
<rect x="61" y="64" width="46" height="20" rx="2" fill="#2A2A2A"/>
<rect opacity="0.5" x="52" y="57" width="35" height="3" rx="1.5" fill="#3566B0"/>
<rect opacity="0.5" x="14" y="30" width="19" height="2" rx="1" fill="#3566B0"/>
<rect opacity="0.5" x="14" y="34" width="16" height="2" rx="1" fill="#FAFBFC"/>
<rect opacity="0.5" x="14" y="38" width="14" height="2" rx="1" fill="#FAFBFC"/>
<rect opacity="0.5" x="160" y="57" width="35" height="3" rx="1.5" fill="#FAFBFC"/>
<rect opacity="0.5" x="63" y="88" width="35" height="3" rx="1.5" fill="#F5C26B"/>
<rect opacity="0.5" x="120" y="89" width="35" height="3" rx="1.5" fill="#FAFBFC"/>
<rect opacity="0.5" x="198" y="57" width="16" height="3" rx="1.5" fill="#F5C26B"/>
<rect opacity="0.5" x="182" y="77" width="16" height="3" rx="1.5" fill="#F5C26B"/>
<rect x="138" y="33" width="53" height="20" rx="2" fill="#2A2A2A"/>
<rect x="114" y="64" width="37" height="20" rx="2" fill="#2A2A2A"/>
<rect x="172" y="83" width="37" height="35" rx="2" fill="#2A2A2A"/>
<rect x="58" y="98" width="82" height="20" rx="2" fill="#2A2A2A"/>
<rect x="46" y="7" width="15" height="15" rx="7.5" fill="#1C1C1C"/>
<rect x="13" y="17" width="23" height="10" rx="1" fill="#1C1C1C"/>
<rect opacity="0.6" x="-1" width="249" height="126" rx="1" fill="black"/>
</g>
<g clip-path="url(#clip2_70_219)">
<path d="M262.5 5C262.5 2.23858 264.739 0 267.5 0H505C507.761 0 510 2.23858 510 5V125H262.5V5Z" fill="#1C1C1C"/>
<g clip-path="url(#clip3_70_219)">
<mask id="path-30-inside-2_70_219" fill="white">
<path d="M262.5 0H309.5V125H262.5V0Z"/>
</mask>
<path d="M262.5 0H309.5V125H262.5V0Z" fill="#1C1C1C"/>
<g clip-path="url(#clip4_70_219)">
<rect x="269.5" y="7" width="33" height="25" rx="3" fill="#2A2A2A"/>
<g opacity="0.2">
<path d="M269.5 27H302.5V29C302.5 30.6569 301.157 32 299.5 32H272.5C270.843 32 269.5 30.6569 269.5 29V27Z" fill="#F5C26B"/>
</g>
</g>
<g clip-path="url(#clip5_70_219)">
<rect x="269.5" y="42" width="33" height="25" rx="3" fill="#2A2A2A"/>
<g opacity="0.2">
<path d="M269.5 62H302.5V64C302.5 65.6569 301.157 67 299.5 67H272.5C270.843 67 269.5 65.6569 269.5 64V62Z" fill="#F5C26B"/>
</g>
</g>
<g clip-path="url(#clip6_70_219)">
<rect x="269.5" y="77" width="33" height="25" rx="3" fill="#2A2A2A"/>
<g opacity="0.2">
<path d="M269.5 97H302.5V99C302.5 100.657 301.157 102 299.5 102H272.5C270.843 102 269.5 100.657 269.5 99V97Z" fill="#F5C26B"/>
</g>
</g>
<g clip-path="url(#clip7_70_219)">
<rect x="269.5" y="112" width="33" height="25" rx="3" fill="#2A2A2A"/>
</g>
</g>
<path d="M309.5 0H308.5V125H309.5H310.5V0H309.5Z" fill="#1C1C1C" mask="url(#path-30-inside-2_70_219)"/>
<g clip-path="url(#clip8_70_219)">
<rect width="200.5" height="125" transform="translate(309.5)" fill="#1C1C1C"/>
<rect width="200.5" height="15" transform="translate(309.5)" fill="#1C1C1C"/>
<rect opacity="0.2" x="319.5" y="4" width="7" height="7" rx="1" fill="#3566B0"/>
<rect opacity="0.2" x="329.5" y="6.5" width="20" height="2" rx="1" fill="#FAFBFC"/>
<rect opacity="0.2" x="370.25" y="7" width="20" height="1" rx="0.5" fill="#FAFBFC"/>
<rect opacity="0.2" x="393.25" y="7" width="20" height="1" rx="0.5" fill="#FAFBFC"/>
<rect opacity="0.2" x="416.25" y="7" width="20" height="1" rx="0.5" fill="#FAFBFC"/>
<rect opacity="0.2" x="439.25" y="7" width="20" height="1" rx="0.5" fill="#FAFBFC"/>
<rect opacity="0.2" x="480" y="5" width="20" height="5" rx="1" fill="#3566B0"/>
<rect width="200.5" height="125" transform="translate(309.5 15)" fill="#151515"/>
<g clip-path="url(#clip9_70_219)">
<rect x="319.5" y="25" width="53.5" height="31.6667" rx="2" fill="#1C1C1C"/>
<rect width="53.5" height="15.8333" transform="translate(319.5 25)" fill="#2A2A2A"/>
<rect opacity="0.2" x="321.5" y="42.8333" width="29" height="1" rx="0.5" fill="#A9ABB1"/>
<rect opacity="0.2" x="321.5" y="45.8333" width="42" height="0.5" rx="0.25" fill="#6F6F6F"/>
<rect opacity="0.2" x="321.5" y="47.3333" width="18" height="0.5" rx="0.25" fill="#6F6F6F"/>
<rect opacity="0.2" x="359" y="51.6665" width="12" height="3" rx="1.5" fill="#3566B0"/>
</g>
<g clip-path="url(#clip10_70_219)">
<rect x="383" y="25" width="53.5" height="31.6667" rx="2" fill="#1C1C1C"/>
<rect width="53.5" height="15.8333" transform="translate(383 25)" fill="#2A2A2A"/>
<rect opacity="0.2" x="385" y="42.8333" width="17" height="1" rx="0.5" fill="#A9ABB1"/>
<rect opacity="0.2" x="385" y="45.8333" width="42" height="0.5" rx="0.25" fill="#6F6F6F"/>
<rect opacity="0.2" x="385" y="47.3333" width="11" height="0.5" rx="0.25" fill="#6F6F6F"/>
<rect opacity="0.2" x="422.5" y="51.6665" width="12" height="3" rx="1.5" fill="#3566B0"/>
</g>
<g clip-path="url(#clip11_70_219)">
<rect x="446.5" y="25" width="53.5" height="31.6667" rx="2" fill="#1C1C1C"/>
<rect width="53.5" height="15.8333" transform="translate(446.5 25)" fill="#2A2A2A"/>
<rect opacity="0.2" x="448.5" y="42.8333" width="19" height="1" rx="0.5" fill="#A9ABB1"/>
<g opacity="0.2">
<rect opacity="0.5" x="448.5" y="45.8333" width="30" height="0.5" rx="0.25" fill="#6F6F6F"/>
</g>
<rect opacity="0.2" x="486" y="51.6665" width="12" height="3" rx="1.5" fill="#3566B0"/>
</g>
<g clip-path="url(#clip12_70_219)">
<rect x="319.5" y="66.6667" width="53.5" height="31.6667" rx="2" fill="#1C1C1C"/>
<rect width="53.5" height="15.8333" transform="translate(319.5 66.6667)" fill="#2A2A2A"/>
<rect opacity="0.2" x="321.5" y="84.5" width="23" height="1" rx="0.5" fill="#A9ABB1"/>
<rect opacity="0.2" x="321.5" y="87.5" width="42" height="0.5" rx="0.25" fill="#6F6F6F"/>
<rect opacity="0.2" x="359" y="93.3333" width="12" height="3" rx="1.5" fill="#3566B0"/>
</g>
<g clip-path="url(#clip13_70_219)">
<rect x="383" y="66.6667" width="53.5" height="31.6667" rx="2" fill="#1C1C1C"/>
<rect width="53.5" height="15.8333" transform="translate(383 66.6667)" fill="#2A2A2A"/>
<rect opacity="0.2" x="385" y="84.5" width="35" height="1" rx="0.5" fill="#A9ABB1"/>
<rect opacity="0.2" x="385" y="87.5" width="18" height="0.5" rx="0.25" fill="#6F6F6F"/>
<rect opacity="0.2" x="422.5" y="93.3333" width="12" height="3" rx="1.5" fill="#3566B0"/>
</g>
<g clip-path="url(#clip14_70_219)">
<rect x="446.5" y="66.6667" width="53.5" height="31.6667" rx="2" fill="#1C1C1C"/>
<rect width="53.5" height="15.8333" transform="translate(446.5 66.6667)" fill="#2A2A2A"/>
<rect opacity="0.2" x="448.5" y="84.5" width="11" height="1" rx="0.5" fill="#A9ABB1"/>
<rect opacity="0.2" x="448.5" y="87.5" width="42" height="0.5" rx="0.25" fill="#6F6F6F"/>
<rect opacity="0.2" x="448.5" y="89" width="18" height="0.5" rx="0.25" fill="#6F6F6F"/>
<rect opacity="0.2" x="486" y="93.3333" width="12" height="3" rx="1.5" fill="#3566B0"/>
</g>
<g clip-path="url(#clip15_70_219)">
<rect x="319.5" y="108.333" width="53.5" height="31.6667" rx="2" fill="#1C1C1C"/>
<rect width="53.5" height="15.8333" transform="translate(319.5 108.333)" fill="#2A2A2A"/>
</g>
<g clip-path="url(#clip16_70_219)">
<rect x="383" y="108.333" width="53.5" height="31.6667" rx="2" fill="#1C1C1C"/>
<rect width="53.5" height="15.8333" transform="translate(383 108.333)" fill="#2A2A2A"/>
</g>
<g clip-path="url(#clip17_70_219)">
<rect x="446.5" y="108.333" width="53.5" height="31.6667" rx="2" fill="#1C1C1C"/>
<rect width="53.5" height="15.8333" transform="translate(446.5 108.333)" fill="#2A2A2A"/>
</g>
</g>
</g>
</g>
<path d="M0 0H510H0M510 125.5H0V124.5H510V125.5ZM510 124.5M0 125V0V125M0 125M510 0V125V0" fill="#2A2A2A" mask="url(#path-1-inside-1_70_219)"/>
<defs>
<clipPath id="clip0_70_219">
<path d="M0 5C0 2.23858 2.23858 0 5 0H505C507.761 0 510 2.23858 510 5V125H0V5Z" fill="white"/>
</clipPath>
<clipPath id="clip1_70_219">
<path d="M0 5C0 2.23858 2.23858 0 5 0H242.5C245.261 0 247.5 2.23858 247.5 5V125H0V5Z" fill="white"/>
</clipPath>
<clipPath id="clip2_70_219">
<path d="M262.5 5C262.5 2.23858 264.739 0 267.5 0H505C507.761 0 510 2.23858 510 5V125H262.5V5Z" fill="white"/>
</clipPath>
<clipPath id="clip3_70_219">
<path d="M262.5 0H309.5V125H262.5V0Z" fill="white"/>
</clipPath>
<clipPath id="clip4_70_219">
<rect x="269.5" y="7" width="33" height="25" rx="3" fill="white"/>
</clipPath>
<clipPath id="clip5_70_219">
<rect x="269.5" y="42" width="33" height="25" rx="3" fill="white"/>
</clipPath>
<clipPath id="clip6_70_219">
<rect x="269.5" y="77" width="33" height="25" rx="3" fill="white"/>
</clipPath>
<clipPath id="clip7_70_219">
<rect x="269.5" y="112" width="33" height="25" rx="3" fill="white"/>
</clipPath>
<clipPath id="clip8_70_219">
<rect width="200.5" height="125" fill="white" transform="translate(309.5)"/>
</clipPath>
<clipPath id="clip9_70_219">
<rect x="319.5" y="25" width="53.5" height="31.6667" rx="2" fill="white"/>
</clipPath>
<clipPath id="clip10_70_219">
<rect x="383" y="25" width="53.5" height="31.6667" rx="2" fill="white"/>
</clipPath>
<clipPath id="clip11_70_219">
<rect x="446.5" y="25" width="53.5" height="31.6667" rx="2" fill="white"/>
</clipPath>
<clipPath id="clip12_70_219">
<rect x="319.5" y="66.6667" width="53.5" height="31.6667" rx="2" fill="white"/>
</clipPath>
<clipPath id="clip13_70_219">
<rect x="383" y="66.6667" width="53.5" height="31.6667" rx="2" fill="white"/>
</clipPath>
<clipPath id="clip14_70_219">
<rect x="446.5" y="66.6667" width="53.5" height="31.6667" rx="2" fill="white"/>
</clipPath>
<clipPath id="clip15_70_219">
<rect x="319.5" y="108.333" width="53.5" height="31.6667" rx="2" fill="white"/>
</clipPath>
<clipPath id="clip16_70_219">
<rect x="383" y="108.333" width="53.5" height="31.6667" rx="2" fill="white"/>
</clipPath>
<clipPath id="clip17_70_219">
<rect x="446.5" y="108.333" width="53.5" height="31.6667" rx="2" fill="white"/>
</clipPath>
</defs>
</svg>
