<svg width="510" height="125" viewBox="0 0 510 125" fill="none" xmlns="http://www.w3.org/2000/svg">
<g clip-path="url(#clip0_176_203)">
<mask id="path-1-inside-1_176_203" fill="white">
<path d="M0 10C0 4.47715 4.47715 0 10 0H500C505.523 0 510 4.47715 510 10V125H0V10Z"/>
</mask>
<path d="M0 10C0 4.47715 4.47715 0 10 0H500C505.523 0 510 4.47715 510 10V125H0V10Z" fill="#151515"/>
<rect width="510" height="25" fill="#1C1C1C"/>
<rect x="15" y="5" width="15" height="15" rx="2" fill="#2A2A2A"/>
<rect x="33" y="11" width="42" height="3" rx="1.5" fill="#2A2A2A"/>
<circle cx="456" cy="12.5" r="5" fill="#A9ABB1"/>
<circle cx="473" cy="12.5" r="5" fill="#F5C26B"/>
<circle cx="490" cy="12.5" r="5" fill="#3566B0"/>
<path d="M105.354 35.6464C105.158 35.4512 104.842 35.4512 104.646 35.6464L101.464 38.8284C101.269 39.0237 101.269 39.3403 101.464 39.5355C101.66 39.7308 101.976 39.7308 102.172 39.5355L105 36.7071L107.828 39.5355C108.024 39.7308 108.34 39.7308 108.536 39.5355C108.731 39.3403 108.731 39.0237 108.536 38.8284L105.354 35.6464ZM105 125L105.5 125L105.5 36L105 36L104.5 36L104.5 125L105 125Z" fill="#333333"/>
<path d="M120 100C120 98.8954 120.895 98 122 98H133C134.105 98 135 98.8954 135 100V125H120V100Z" fill="#333333"/>
<path d="M150 86C150 84.8954 150.895 84 152 84H163C164.105 84 165 84.8954 165 86V125H150V86Z" fill="#333333"/>
<path d="M180 68C180 66.8954 180.895 66 182 66H193C194.105 66 195 66.8954 195 68V125H180V68Z" fill="#333333"/>
<path d="M210 96C210 94.8954 210.895 94 212 94H223C224.105 94 225 94.8954 225 96V125H210V96Z" fill="#333333"/>
<path d="M240 80C240 78.8954 240.895 78 242 78H253C254.105 78 255 78.8954 255 80V125H240V80Z" fill="#333333"/>
<path d="M270 112C270 110.895 270.895 110 272 110H283C284.105 110 285 110.895 285 112V125H270V112Z" fill="#333333"/>
<path opacity="0.25" d="M300 92C300 90.8954 300.895 90 302 90H313C314.105 90 315 90.8954 315 92V125H300V92Z" fill="#F5C26B"/>
<path opacity="0.25" d="M330 77C330 75.8954 330.895 75 332 75H343C344.105 75 345 75.8954 345 77V125H330V77Z" fill="#F5C26B"/>
<path opacity="0.25" d="M360 59C360 57.8954 360.895 57 362 57H373C374.105 57 375 57.8954 375 59V125H360V59Z" fill="#3566B0"/>
<path opacity="0.25" d="M390 38C390 36.8954 390.895 36 392 36H403C404.105 36 405 36.8954 405 38V125H390V38Z" fill="#3566B0"/>
</g>
<path d="M0 0H510H0M510 125.5H0V124.5H510V125.5ZM510 124.5M0 125V0V125M0 125M510 0V125V0" fill="#2A2A2A" mask="url(#path-1-inside-1_176_203)"/>
<defs>
<clipPath id="clip0_176_203">
<path d="M0 10C0 4.47715 4.47715 0 10 0H500C505.523 0 510 4.47715 510 10V125H0V10Z" fill="white"/>
</clipPath>
</defs>
</svg>
